# xmcd
# Track frame offsets:
# 150
# 16199
# 35258
# 48884
# 68777
# 82364
# 94146
# 112445
# 123331
# 137177
#
# Disc length: 2027 seconds
# Revision: 0
# Processed by: cddbd v1.5.2PL0 Copyright (c) Steve Scherf et al.
# Submitted via: VisiTrax 2.11.3.279 - For more info visit www.synapsa.com
#
DISCID=8b07e90a
DTITLE=Menager. Michael - Not The Express
DYEAR=2016
DGENRE=Country
TTITLE0=Unfamiliar Place
TTITLE1=Take To Wing
TTITLE2=Pieces
TTITLE3=Not The Express
TTITLE4=Looking Good, Going Nowhere
TTITLE5=Don't Baby Don't
TTITLE6=Bad Habits
TTITLE7=From Father To Son
TTITLE8=A Time Of Turning
TTITLE9=Rise In Love
EXTD=Aust Artist.   Folky, Bluesy,  Alt. Country
EXTT0=
EXTT1=
EXTT2=
EXTT3=
EXTT4=
EXTT5=
EXTT6=
EXTT7=
EXTT8=
EXTT9=
PLAYORDER=
